<mxfile host="app.diagrams.net" modified="2024-05-29T07:24:39.081Z" agent="Mozilla/5.0 (Windows NT 10.0; Win64; x64) AppleWebKit/537.36 (KHTML, like Gecko) Chrome/125.0.0.0 Safari/537.36 Edg/125.0.0.0" version="24.4.9" etag="aJoii42XTxDp7qAraa7E" type="github">
  <diagram name="第 1 页" id="2nzn0usjftdMqm65ZMNE">
    <mxGraphModel>
      <root>
        <mxCell id="0" />
        <mxCell id="1" parent="0" />
      </root>
    </mxGraphModel>
  </diagram>
</mxfile>
